<svg width="20" height="20" viewBox="0 0 20 20" fill="none" xmlns="http://www.w3.org/2000/svg">
<path fill-rule="evenodd" clip-rule="evenodd" d="M10 20C15.5228 20 20 15.5228 20 10C20 4.47715 15.5228 0 10 0C4.47715 0 0 4.47715 0 10C0 15.5228 4.47715 20 10 20Z" fill="#4F372F"/>
<path fill-rule="evenodd" clip-rule="evenodd" d="M15.1429 10.8571H10.8571V15.1429C10.8571 15.6143 10.4714 16 10 16C9.52857 16 9.14286 15.6143 9.14286 15.1429V10.8571H4.85714C4.38571 10.8571 4 10.4714 4 10C4 9.52857 4.38571 9.14286 4.85714 9.14286H9.14286V4.85714C9.14286 4.38571 9.52857 4 10 4C10.4714 4 10.8571 4.38571 10.8571 4.85714V9.14286H15.1429C15.6143 9.14286 16 9.52857 16 10C16 10.4714 15.6143 10.8571 15.1429 10.8571Z" fill="white"/>
<path fill-rule="evenodd" clip-rule="evenodd" d="M14.8891 11.1427L11.1429 11.1428V14.854C11.1429 15.4826 10.6286 15.9969 10.0001 15.9969C9.3715 15.9969 8.85721 15.4826 8.85721 14.854V11.1428H5.1453C4.51673 11.1428 4.00244 10.6285 4.00244 9.99997C4.00244 9.3714 4.51673 8.85712 5.1453 8.85712H8.85721V5.15555C8.85721 4.52698 9.3715 4.0127 10.0001 4.0127C10.6286 4.0127 11.1429 4.52698 11.1429 5.15555V8.85712L14.8891 8.85702C15.5177 8.85702 16.032 9.3713 16.032 9.99987C16.032 10.6284 15.5177 11.1427 14.8891 11.1427Z" fill="white"/>
</svg>
